<svg data-name="Component 1215 – 11" xmlns="http://www.w3.org/2000/svg" width="48" height="48" viewBox="0 0 48 48">
    <path data-name="Rectangle 138" style="fill:none" d="M0 0h48v48H0z"/>
    <path d="M35.167 12.833a16.5 16.5 0 0 0-23.334 23.334 16.5 16.5 0 0 0 23.334-23.334zM14.161 35.67a9.44 9.44 0 0 1 9.339-8.308 9.4 9.4 0 0 1 9.339 8.307 14.536 14.536 0 0 1-18.678 0zm9.339-10.3a5.011 5.011 0 1 1 5.011-5.011 5.017 5.017 0 0 1-5.011 5.012zm11 8.664a11.367 11.367 0 0 0-7.115-7.924 6.945 6.945 0 1 0-7.774 0 11.356 11.356 0 0 0-7.111 7.923 14.566 14.566 0 1 1 22.008 0zm0 0"/>
</svg>
