<svg xmlns="http://www.w3.org/2000/svg" width="21.162" height="21.691" viewBox="0 0 21.162 21.691">
    <path data-name="Path 57642" d="M76.887 132.752h-1.271v-6.4a6.355 6.355 0 1 0-12.709 0v6.4h-1.272a.635.635 0 0 0-.635.635v2.584a.635.635 0 0 0 .635.635h15.252a.635.635 0 0 0 .635-.635v-2.584a.635.635 0 0 0-.635-.635zm-12.709-6.4a5.084 5.084 0 0 1 10.167 0v6.4H64.177zm12.074 8.981H62.271v-1.313h13.98z" transform="translate(-58.68 -114.916)" style="fill:#727272"/>
    <path data-name="Path 57643" d="M240.635 3.813a.635.635 0 0 0 .635-.635V.635a.635.635 0 0 0-1.271 0v2.542a.635.635 0 0 0 .636.636z" transform="translate(-230.097)" style="fill:#727272"/>
    <path data-name="Path 57644" d="M106.237 39.893a.635.635 0 0 0 1.1-.635l-1.271-2.2a.635.635 0 0 0-1.1.635z" transform="translate(-100.702 -35.182)" style="fill:#727272"/>
    <path data-name="Path 57645" d="M9.625 138.338a.635.635 0 0 0-.233-.868l-2.2-1.271a.635.635 0 1 0-.635 1.1l2.2 1.271a.635.635 0 0 0 .868-.232z" transform="translate(-6.237 -130.347)" style="fill:#727272"/>
    <path data-name="Path 57646" d="M347.431 40.125a.635.635 0 0 0 .868-.233l1.271-2.2a.635.635 0 1 0-1.1-.635l-1.271 2.2a.635.635 0 0 0 .232.868z" transform="translate(-332.672 -35.181)" style="fill:#727272"/>
    <path data-name="Path 57647" d="M427.183 136.432a.635.635 0 0 0-.868-.233l-2.2 1.271a.635.635 0 0 0 .635 1.1l2.2-1.271a.635.635 0 0 0 .233-.867z" transform="translate(-406.106 -130.348)" style="fill:#727272"/>
</svg>
