<svg xmlns="http://www.w3.org/2000/svg" width="25" height="22.463" viewBox="0 0 25 22.463">
  <path id="heart" d="M21.175,2a6.185,6.185,0,0,0-4.6-2,5.786,5.786,0,0,0-3.614,1.247A7.394,7.394,0,0,0,11.5,2.773a7.39,7.39,0,0,0-1.461-1.526A5.785,5.785,0,0,0,6.425,0a6.185,6.185,0,0,0-4.6,2A7.189,7.189,0,0,0,0,6.912a8.561,8.561,0,0,0,2.281,5.6,48.641,48.641,0,0,0,5.71,5.36c.791.674,1.688,1.439,2.619,2.253a1.35,1.35,0,0,0,1.778,0c.931-.814,1.829-1.579,2.62-2.254a48.619,48.619,0,0,0,5.71-5.359A8.56,8.56,0,0,0,23,6.912,7.189,7.189,0,0,0,21.175,2Zm0,0" transform="translate(1 1)" fill="#E23B55" stroke="#E23B55" stroke-width="2"/>
</svg>
