<svg xmlns="http://www.w3.org/2000/svg" width="19.458" height="17.422" viewBox="0 0 19.458 17.422">
  <path id="heart" d="M16.994,1.607A4.963,4.963,0,0,0,13.3,0a4.643,4.643,0,0,0-2.9,1A5.934,5.934,0,0,0,9.229,2.225,5.93,5.93,0,0,0,8.056,1a4.643,4.643,0,0,0-2.9-1A4.964,4.964,0,0,0,1.464,1.607,5.77,5.77,0,0,0,0,5.547a6.87,6.87,0,0,0,1.831,4.5,39.035,39.035,0,0,0,4.583,4.3c.635.541,1.355,1.155,2.1,1.808a1.084,1.084,0,0,0,1.427,0c.747-.654,1.468-1.267,2.1-1.809a39.018,39.018,0,0,0,4.582-4.3,6.869,6.869,0,0,0,1.831-4.5A5.769,5.769,0,0,0,16.994,1.607Zm0,0" transform="translate(0.5 0.5)" fill="#f8f7f7" stroke="#e0e0e2" stroke-width="1"/>
</svg>
