<svg data-name="Component 48 – 1" xmlns="http://www.w3.org/2000/svg" width="20" height="17" viewBox="0 0 20 17">
    <g data-name="Group 1">
        <path data-name="Path 1" d="M14.688 30a4.853 4.853 0 0 0-2.957.984 6.545 6.545 0 0 0-1.73 2 6.544 6.544 0 0 0-1.73-2A4.853 4.853 0 0 0 5.313 30 5.315 5.315 0 0 0 0 35.548c0 3.417 2.849 5.755 7.163 9.294.733.6 1.563 1.282 2.426 2.009a.643.643 0 0 0 .823 0c.863-.727 1.693-1.408 2.426-2.009C17.151 41.3 20 38.965 20 35.548A5.315 5.315 0 0 0 14.688 30z" transform="translate(0 -30)" style="fill:#fff"/>
    </g>
</svg>
