<svg data-name="Component 1250 – 13" xmlns="http://www.w3.org/2000/svg" width="38" height="38" viewBox="0 0 38 38">
    <g data-name="Ellipse 985" style="fill:#e8e8e8;stroke:#fff;stroke-width:2px">
        <circle cx="19" cy="19" r="19" style="stroke:none"/>
        <circle cx="19" cy="19" r="18" style="fill:none"/>
    </g>
    <path data-name="Path 60564" d="M17.836 20.244H4.658a2.408 2.408 0 0 1-2.408-2.408V4.658A2.408 2.408 0 0 1 4.658 2.25h13.178a2.408 2.408 0 0 1 2.408 2.408v13.178a2.408 2.408 0 0 1-2.408 2.408zM4.658 3.634a1.024 1.024 0 0 0-1.024 1.024v13.178a1.024 1.024 0 0 0 1.024 1.024h13.178a1.024 1.024 0 0 0 1.024-1.024V4.658a1.024 1.024 0 0 0-1.024-1.024z" transform="translate(7.752 7.753)" style="fill:#7a7a7a"/>
    <path data-name="Path 60565" d="M2.942 18.338a.7.7 0 0 1-.526-.24.692.692 0 0 1 .084-.978l4.725-3.986a1.846 1.846 0 0 1 2.492.1l2.242 2.242a.461.461 0 0 0 .6 0l2.176-1.576a1.846 1.846 0 0 1 2.252 0l3 2.39a.7.7 0 0 1-.867 1.089l-2.99-2.4a.461.461 0 0 0-.563 0l-2.178 1.689a1.846 1.846 0 0 1-2.409-.168l-2.243-2.287a.461.461 0 0 0-.618 0l-4.734 3.968a.664.664 0 0 1-.443.157z" transform="translate(7.752 6.946)" style="fill:#7a7a7a"/>
    <path data-name="Path 60566" d="M14.788 11.325a2.538 2.538 0 1 1 2.538-2.538 2.538 2.538 0 0 1-2.538 2.538zm0-3.691a1.153 1.153 0 1 0 1.153 1.153 1.153 1.153 0 0 0-1.153-1.153z" transform="translate(6.98 7.444)" style="fill:#7a7a7a"/>
</svg>
