<svg xmlns="http://www.w3.org/2000/svg" width="18.5" height="15.8" viewBox="0 0 18.5 15.8">
    <g data-name="Component 602 – 9">
        <path data-name="Path 3" d="m.288 48.281 6.5-6.642a.973.973 0 0 1 1.393 0l.59.6a1.01 1.01 0 0 1 .288.712 1.03 1.03 0 0 1-.288.72l-3.792 3.887h12.049a.972.972 0 0 1 .972.99v.852a1.01 1.01 0 0 1-.972 1.033H4.936l3.835 3.9a1.012 1.012 0 0 1 0 1.413l-.59.6a.973.973 0 0 1-1.393 0l-6.5-6.636a1.031 1.031 0 0 1 0-1.429z" transform="translate(.25 -41.096)" style="stroke:#fff;stroke-width:.5px"/>
    </g>
</svg>
