<svg data-name="Component 415 – 32" xmlns="http://www.w3.org/2000/svg" width="24" height="24" viewBox="0 0 24 24">
    <defs>
        <clipPath id="3c5gt9crsa">
            <path data-name="Rectangle 70917" transform="translate(1546 279)" style="fill:#fff;stroke:#b1b1b1" d="M0 0h24v24H0z"/>
        </clipPath>
    </defs>
    <g data-name="Mask Group 5" transform="translate(-1546 -279)" style="clip-path:url(#3c5gt9crsa)">
        <g data-name="Group 33503">
            <path data-name="Path 51410" d="M19.171 6.689A10.074 10.074 0 0 0 12 3.718h-1.487L12.9 1.326 11.57 0 6.922 4.659l4.587 4.663 1.339-1.317L10.479 5.6H12a8.263 8.263 0 1 1-8.263 8.263v-.943H1.859v.939a10.141 10.141 0 0 0 17.312 7.171 10.141 10.141 0 0 0 0-14.341z" style="fill:#7a7a7a" transform="translate(1546 279)"/>
        </g>
    </g>
</svg>
