<svg data-name="Component 38 – 1" xmlns="http://www.w3.org/2000/svg" width="56" height="56" viewBox="0 0 56 56">
    <circle data-name="Ellipse 5" cx="28" cy="28" r="28"/>
    <g data-name="Group 13">
        <path data-name="Path 3" d="M29.036 52.715 18.38 41.827a1.6 1.6 0 0 0-2.284 0l-.968.989a1.656 1.656 0 0 0-.471 1.167 1.689 1.689 0 0 0 .471 1.18l6.217 6.366H1.594A1.593 1.593 0 0 0 0 53.151v1.4a1.656 1.656 0 0 0 1.594 1.694h19.821l-6.287 6.4a1.659 1.659 0 0 0 0 2.317l.968.986a1.6 1.6 0 0 0 2.284 0l10.656-10.891a1.69 1.69 0 0 0 0-2.342z" transform="translate(13.246 -25.887)" style="fill:#fff;stroke:#000;stroke-width:2px"/>
    </g>
</svg>
