<svg data-name="Component 37 – 1" xmlns="http://www.w3.org/2000/svg" width="56" height="56" viewBox="0 0 56 56">
    <circle data-name="Ellipse 5" cx="28" cy="28" r="28"/>
    <g data-name="Group 13">
        <path data-name="Path 3" d="m.472 52.715 10.656-10.888a1.6 1.6 0 0 1 2.284 0l.968.989a1.656 1.656 0 0 1 .471 1.167 1.689 1.689 0 0 1-.471 1.18l-6.217 6.366h19.75a1.593 1.593 0 0 1 1.594 1.622v1.4a1.656 1.656 0 0 1-1.594 1.694H8.092l6.287 6.4a1.659 1.659 0 0 1 0 2.317l-.968.986a1.6 1.6 0 0 1-2.284 0L.471 55.057a1.69 1.69 0 0 1 0-2.342z" transform="translate(13.246 -25.887)" style="fill:#fff;stroke:#000;stroke-width:2px"/>
    </g>
</svg>
