<svg xmlns="http://www.w3.org/2000/svg" width="671.23" height="272.2" viewBox="0 0 671.23 272.2">
    <g data-name="Component 419 – 1">
        <path data-name="Path 51399" d="M91.5-20.168C84.986-7.392 75.148.146 63.649 1.807 41.163 5.257 22.765-6.5 15.865-28.984c-6.9-22.614 1.022-48.422 22.87-53.15C55.472-85.711 70.676-74.723 80-59.9h.9l3.83-14.568C73.87-81.623 65.565-85.2 51.767-85.2 26.47-85.2 3.6-64.758 3.6-39.461s21.848 45.74 47.017 45.74C73.231 6.279 85.5-5.475 92.4-19.785zm37.435-35.774c-13.543 0-17.12 18.781-18.4 34.241v-34.241h-1.022l-12.01 2.811v.894c2.555.383 2.939 1.661 2.939 6.133V-2.92c0 4.472-.894 6.388-2.939 7.538v.894h15.843v-.894c-1.916-1.15-2.811-3.066-2.811-7.538V-7.9c0-10.86 1.661-43.823 14.182-45.739 6.9-1.022 10.477 8.432 10.732 15.715l.894.511L144.14-48.4c-4.34-5.115-8.304-7.542-15.204-7.542zm64.521 20.187h11.882c-1.789-15.459-16.737-20.7-27.6-20.187-14.054.767-34.113 10.349-33.474 32.452.511 21.081 17.5 29.769 35.135 29.769 18.142 0 26.192-12.01 26.958-21.081 1.026-11.627-5.617-19.037-12.9-20.953zm-21.463-18.654c12.521-2.428 22.486 6.516 24.147 17.631h-40.757c2.3-8.687 7.917-15.97 16.61-17.631zm33.219 39.862c-1.278 9.966-10.86 17.5-21.848 18.015-13.032.511-22.614-5.366-27.341-18.781a36.9 36.9 0 0 1-.894-20.442h33.091c9.709 0 18.524 7.921 16.991 21.208zM269.86 4.618c-1.916-1.15-2.811-3.066-2.811-7.538v-31.686c0-15.715-11.243-21.337-21.848-21.337-17.12 0-21.081 15.843-17.759 23.253-9.842 4.09-17.631 11.755-15.459 24.79 1.661 9.2 11.882 14.182 22.359 14.182 12.265 0 19.292-7.41 22.614-18.654V5.512h12.9zm-25.808-59.282c9.071 0 12.9 8.56 12.9 18.27v.894a26.9 26.9 0 0 0-7.666-1.15 61.441 61.441 0 0 0-20.57 3.45 16.008 16.008 0 0 1 15.336-21.464zm-6.644 59.282C231.02 5 223.609.785 221.948-6.114 216.455-28.6 235.364-35.5 249.29-35.5a24.386 24.386 0 0 1 7.666 1.15v19.676c-2.556 9.199-8.433 18.653-19.548 19.292zM320.2-17.1c-2.3 9.838-6.516 19.931-14.948 21.081-10.86 1.405-13.926-7.155-13.926-18.27V-54.92H306.4v-1.022h-28.236c7.666-.383 17.376-7.666 17.376-17.5h-10.093c0 6.133-.894 17.5-11.754 17.5v1.022h7.538v38.712c0 15.076 7.027 22.486 18.4 22.486 13.415 0 18.781-11.115 21.209-23.125zm46.123-18.654H378.2c-1.789-15.459-16.737-20.7-27.6-20.187-14.054.767-34.113 10.349-33.474 32.452.511 21.081 17.5 29.769 35.135 29.769 18.142 0 26.192-12.01 26.958-21.081 1.029-11.628-5.619-19.038-12.898-20.954zm-21.466-18.655c12.521-2.428 22.486 6.516 24.147 17.631h-40.756c2.3-8.687 7.921-15.97 16.609-17.631zm33.219 39.862c-1.278 9.966-10.86 17.5-21.848 18.015-13.028.511-22.614-5.368-27.341-18.781a36.9 36.9 0 0 1-.894-20.442h33.091c9.709 0 18.525 7.921 16.992 21.208zm94.417-40.373v-1.022h-15.076v1.022c5.749 4.727 4.216 11.754-.511 23.509L446.429-5.348l-15.2-35.518c-2.939-7.155-3.961-10.6-.767-14.054v-1.022h-19.551v1.022c6.133 5.111 8.816 10.6 14.182 23.125l16.354 38.457c-4.216 9.455-9.455 17.887-16.1 18.654-7.027.767-8.432-9.071-7.155-16.226l-.767-.639-9.966 9.071c3.194 5.877 8.177 9.071 15.076 9.071 10.093 0 15.843-9.582 20.442-21.081 4.6-11.371 14.821-36.8 14.821-36.8 4.73-11.75 9.202-18.012 14.695-23.632zm32.069-1.022c-17.12 0-34.624 12.776-34.624 33.857 0 17.887 14.693 28.364 31.941 28.364C519 6.279 536.5-7.136 536.5-27.579c0-17.631-14.818-28.363-31.938-28.363zm7.155 59.921C497.152 8.323 485.142-2.665 480.67-18c-4.472-15.459-.511-31.43 14.054-35.646S521.3-47 525.771-31.667c4.471 15.459.511 31.43-14.054 35.646zm90.712.639c-2.044-1.15-2.939-3.066-2.939-7.538v-53.022h-.89l-12.01 2.811v.894c2.428.383 2.811 1.661 2.811 6.133v9.838c0 10.732-2.555 37.435-16.865 40.246C561.545 6.023 555.8-3.176 555.8-14.291v-41.651h-.9l-12.01 2.811v.894c2.427.383 2.811 1.661 2.811 6.133v29.9c0 15.076 9.327 22.486 21.081 22.486 16.609 0 20.953-17.376 22.614-31.813V5.512h13.032zm37.818-60.56c-13.543 0-17.12 18.781-18.4 34.241v-34.241h-1.022l-12.01 2.811v.894c2.555.383 2.939 1.661 2.939 6.133V-2.92c0 4.472-.894 6.388-2.939 7.538v.894h15.845v-.894c-1.916-1.15-2.811-3.066-2.811-7.538V-7.9c0-10.86 1.661-43.823 14.182-45.739 6.9-1.022 10.477 8.432 10.732 15.715l.894.511 7.794-10.987c-4.344-5.115-8.305-7.542-15.204-7.542zM99.806 66.158v-1.023H87.924l-32.58 56.6-36.668-56.6H7.177l5.749 7.921v66.182c0 5.494-3.833 12.265-8.049 14.437v.894H22v-.894c-4.216-2.172-8.049-8.943-8.049-14.437v-64.9l36.54 55.705h1.15L86.9 68.968v77.169c0 4.472-1.022 6.388-2.939 7.538v.894h15.845v-.894c-2.044-1.15-2.939-3.066-2.939-7.538V73.7c.001-4.6.895-6.393 2.939-7.542zm64.648 87.518c-1.916-1.15-2.811-3.066-2.811-7.538v-31.686c0-15.715-11.243-21.337-21.848-21.337-17.12 0-21.081 15.843-17.759 23.253-9.838 4.088-17.631 11.754-15.459 24.786 1.661 9.2 11.882 14.182 22.359 14.182 12.265 0 19.292-7.41 22.614-18.654v17.888h12.9zm-25.808-59.283c9.071 0 12.9 8.56 12.9 18.27v.894a26.9 26.9 0 0 0-7.666-1.15 61.441 61.441 0 0 0-20.57 3.45 16.008 16.008 0 0 1 15.336-21.464zM132 153.676c-6.388.383-13.8-3.833-15.459-10.732-5.494-22.486 13.415-29.386 27.341-29.386a24.386 24.386 0 0 1 7.666 1.15v19.676c-2.548 9.198-8.43 18.653-19.548 19.292zm63.5-60.56c-13.926 0-18.526 7.538-19.548 15.843-3.066 25.042 41.523 17.631 39.1 34.368-.767 5.494-7.666 10.221-16.865 10.221-11.371 0-20.953-10.6-25.3-19.548h-.639l-2.683 12.776c6.9 5.111 14.565 8.56 24.914 8.56 14.31 0 23.764-7.538 24.531-17.631 1.405-20.826-41.651-16.226-39.862-33.346.639-5.238 5.494-10.093 14.182-10.093 7.283 0 15.459 7.921 19.42 18.781h.639l2.555-11.754c-5.111-3.961-13.799-8.177-20.444-8.177zm73.975 38.84c-2.3 9.838-6.516 19.931-14.948 21.081-10.86 1.405-13.926-7.155-13.926-18.27V94.138h15.076v-1.022h-28.235c7.666-.383 17.376-7.666 17.376-17.5h-10.093c0 6.133-.894 17.5-11.754 17.5v1.022h7.538v38.712c0 15.076 7.027 22.486 18.4 22.486 13.415 0 18.781-11.115 21.209-23.125zM315.6 113.3h11.882c-1.789-15.459-16.737-20.7-27.6-20.187-14.054.767-34.113 10.349-33.474 32.452.511 21.081 17.5 29.769 35.135 29.769 18.142 0 26.192-12.01 26.958-21.081 1.025-11.624-5.619-19.034-12.901-20.953zm-21.465-18.651c12.521-2.428 22.486 6.516 24.147 17.631h-40.756c2.299-8.688 7.921-15.97 16.609-17.631zm33.219 39.862c-1.278 9.966-10.86 17.5-21.848 18.015-13.032.511-22.614-5.366-27.341-18.781a36.9 36.9 0 0 1-.894-20.442h33.091c9.709-.003 18.525 7.921 16.992 21.208zm39.1-41.4c-13.543 0-17.12 18.781-18.4 34.241V93.116h-1.022l-12.01 2.811v.894c2.555.383 2.939 1.661 2.939 6.133v43.184c0 4.472-.894 6.388-2.939 7.538v.894h15.843v-.894c-1.916-1.15-2.811-3.066-2.811-7.538v-4.983c0-10.86 1.661-43.823 14.182-45.739 6.9-1.022 10.477 8.432 10.732 15.715l.894.511 7.794-10.988c-4.347-5.111-8.308-7.538-15.207-7.538zm57.366 0c-17.887 0-24.4 20.187-26.7 35.007V93.116h-.894l-12.01 2.811v.894c2.427.383 2.811 1.661 2.811 6.133V186h.894l12.01-2.811v-.894c-2.427-.383-2.811-1.661-2.811-6.133v-21.975a26.691 26.691 0 0 0 7.538 1.15c14.31 0 43.7-5.366 42.929-37.052-.519-16.226-13.295-25.169-23.772-25.169zm-19.042 61.459a20.322 20.322 0 0 1-7.666-1.15v-17.759c0-10.732 6.771-37.435 21.081-40.246 10.988-2.172 18.781 9.966 19.42 21.081 1.787 32.58-20.569 37.946-32.835 38.074zm60.943-8.432V93.116h-.894l-12.01 2.811v.894c2.428.383 2.811 1.661 2.811 6.133v43.184c0 4.472-.894 6.388-2.811 7.538v.894h15.843v-.894c-2.044-1.15-2.938-3.067-2.938-7.538zm-5.366-63.371a6 6 0 1 0-6-6 6 6 0 0 0 6.001 6zm64.01 30.536h11.882c-1.789-15.459-16.737-20.7-27.6-20.187-14.054.767-34.113 10.349-33.474 32.452.511 21.081 17.5 29.769 35.135 29.769 18.142 0 26.192-12.01 26.958-21.081 1.026-11.627-5.618-19.037-12.901-20.956zM502.9 94.649c12.521-2.428 22.486 6.516 24.147 17.631h-40.755c2.299-8.688 7.921-15.97 16.608-17.631zm33.219 39.862c-1.278 9.966-10.86 17.5-21.848 18.015-13.032.511-22.614-5.366-27.341-18.781a36.9 36.9 0 0 1-.894-20.442h33.091c9.71-.003 18.526 7.921 16.993 21.208zm19.42-.767c-5.366-15.332.383-35.518 16.1-39.1 12.01-2.811 24.147 8.177 27.214 15.843h.767l1.916-10.6c-6.644-3.45-16.865-6.771-24.147-6.771-14.054 0-34.113 10.349-33.474 32.452.511 21.081 18.143 30.663 35.774 29.769 15.2-.894 22.742-10.86 26.7-18.015l-.767-.383c-2.044 3.577-8.943 14.821-21.592 16.1-12.903 1.276-23.763-5.879-28.49-19.294zM660.817 113.3H672.7c-1.789-15.459-16.737-20.7-27.6-20.187-14.054.767-34.113 10.349-33.474 32.452.511 21.081 17.5 29.769 35.135 29.769 18.142 0 26.192-12.01 26.958-21.081 1.024-11.624-5.619-19.034-12.902-20.953zm-21.464-18.651c12.521-2.428 22.486 6.516 24.147 17.631h-40.757c2.3-8.688 7.922-15.97 16.61-17.631zm33.219 39.862c-1.278 9.966-10.86 17.5-21.848 18.015-13.032.511-22.614-5.366-27.341-18.781a36.9 36.9 0 0 1-.894-20.442h33.091c9.709-.003 18.52 7.921 16.991 21.208z" transform="translate(-3.1 85.7)" style="stroke:#000"/>
    </g>
</svg>
